# xmcd
#
# Track frame offsets:
#	150
#	19137
#	42298
#	61480
#	78452
#	94249
#	110210
#	137011
#	152846
#	171508
#	193912
#	212831
#
# Disc length: 3071 seconds
#
# Revision: 0
# Processed by: cddbd v1.5.1PL0 Copyright (c) Steve Scherf et al.
# Submitted via: audiograbber 1.83.01
#
DISCID=b20bfd0c
DTITLE=Lang, Jonny - Lie To Me - Lang, Jonny - Lie To Me
DYEAR=1900
DGENRE=Rock
TTITLE0=Lie To Me
TTITLE1=Darker Side
TTITLE2=Good Morning Little School Girl
TTITLE3=Still Wonder
TTITLE4=Matchbox
TTITLE5=Back For A Taste Of Your Love
TTITLE6=A Quitter Never Wins
TTITLE7=Hit The Ground Running
TTITLE8=Rack 'Em Up
TTITLE9=When I Come To You
TTITLE10=There's Gotta Be A Change
TTITLE11=Missing Your Love
EXTD=
EXTT0=
EXTT1=
EXTT2=
EXTT3=
EXTT4=
EXTT5=
EXTT6=
EXTT7=
EXTT8=
EXTT9=
EXTT10=
EXTT11=
PLAYORDER=
